<?xml version="1.0" standalone="no"?><!DOCTYPE svg PUBLIC "-//W3C//DTD SVG 1.1//EN" "http://www.w3.org/Graphics/SVG/1.1/DTD/svg11.dtd"><svg t="1653459297373" class="icon" viewBox="0 0 1024 1024" version="1.1" xmlns="http://www.w3.org/2000/svg" p-id="999" xmlns:xlink="http://www.w3.org/1999/xlink" width="200" height="200"><defs><style type="text/css"></style></defs><path d="M300.1 274.33h85.33v84.08H300.1zM300.1 476.54h85.33v84.13H300.1zM300.1 678.79h85.33v84.13H300.1zM468.26 274.33h85.33v84.08h-85.33zM468.26 476.54h85.33v84.13h-85.33zM468.26 678.79h85.33v84.13h-85.33z" p-id="1000"></path><path d="M700.89 840.04h-85.33V210.62c0-0.42-0.02-0.79-0.04-1.17H234.7c-0.02 0.38-0.04 0.75-0.04 1.17v629.42h-85.33V210.62c0-47.71 34.67-86.5 77.27-86.5h397c42.63 0 77.29 38.79 77.29 86.5v629.42z" p-id="1001"></path><path d="M875.08 840.04h-85.33V379.79H635.66v-85.33h180.98c33.85 0 58.44 31.71 58.44 75.42v470.16z" p-id="1002"></path><path d="M108.58 822.58h806.85v85.33H108.58z" p-id="1003"></path></svg>